<svg width="21" height="17" viewBox="0 0 21 17" fill="none" xmlns="http://www.w3.org/2000/svg">
<path opacity="0.5" d="M20.603 2.91892L18.0968 0.496588C18.0126 0.41523 17.8982 0.369507 17.779 0.369507C17.6598 0.369507 17.5455 0.41523 17.4613 0.496588L6.8763 10.705C6.7921 10.7864 6.67777 10.8321 6.55854 10.8321C6.43931 10.8321 6.32498 10.7864 6.24077 10.705L3.73457 8.28267C3.65037 8.20131 3.53604 8.15559 3.4168 8.15559C3.29757 8.15559 3.18324 8.20131 3.09904 8.28267L0.592834 10.705C0.417623 10.8739 0.417623 11.1477 0.592834 11.3166L6.24077 16.7609C6.32498 16.8422 6.43931 16.8879 6.55854 16.8879C6.67777 16.8879 6.7921 16.8422 6.8763 16.7609L20.603 3.52451C20.7741 3.35631 20.7741 3.08712 20.603 2.91892Z" fill="white"/>
</svg>
