<svg width="21" height="18" viewBox="0 0 21 18" fill="none" xmlns="http://www.w3.org/2000/svg">
<path opacity="0.5" d="M20.2172 3.41441L17.711 0.992071C17.6268 0.910714 17.5125 0.86499 17.3933 0.86499C17.274 0.86499 17.1597 0.910714 17.0755 0.992071L6.49056 11.2005C6.40636 11.2818 6.29203 11.3276 6.1728 11.3276C6.05357 11.3276 5.93923 11.2818 5.85503 11.2005L3.34883 8.77815C3.26462 8.6968 3.15029 8.65107 3.03106 8.65107C2.91183 8.65107 2.7975 8.6968 2.7133 8.77815L0.207092 11.2005C0.0318809 11.3694 0.0318809 11.6432 0.207092 11.8121L5.85503 17.2563C5.93923 17.3377 6.05357 17.3834 6.1728 17.3834C6.29203 17.3834 6.40636 17.3377 6.49056 17.2563L20.2172 4.01999C20.3883 3.85179 20.3883 3.58261 20.2172 3.41441Z" fill="white"/>
</svg>
