<svg width="21" height="18" viewBox="0 0 21 18" fill="none" xmlns="http://www.w3.org/2000/svg">
<path opacity="0.5" d="M20.603 3.42332L18.0968 1.00098C18.0126 0.919625 17.8982 0.873901 17.779 0.873901C17.6598 0.873901 17.5455 0.919625 17.4613 1.00098L6.8763 11.2094C6.7921 11.2908 6.67777 11.3365 6.55854 11.3365C6.43931 11.3365 6.32498 11.2908 6.24077 11.2094L3.73457 8.78707C3.65037 8.70571 3.53604 8.65999 3.4168 8.65999C3.29757 8.65999 3.18324 8.70571 3.09904 8.78707L0.592834 11.2094C0.417623 11.3783 0.417623 11.6521 0.592834 11.821L6.24077 17.2652C6.32498 17.3466 6.43931 17.3923 6.55854 17.3923C6.67777 17.3923 6.7921 17.3466 6.8763 17.2652L20.603 4.0289C20.7741 3.86071 20.7741 3.59152 20.603 3.42332Z" fill="white"/>
</svg>
