<svg width="21" height="17" viewBox="0 0 21 17" fill="none" xmlns="http://www.w3.org/2000/svg">
<path opacity="0.5" d="M20.2172 2.91892L17.711 0.496588C17.6268 0.41523 17.5125 0.369507 17.3933 0.369507C17.274 0.369507 17.1597 0.41523 17.0755 0.496588L6.49056 10.705C6.40636 10.7864 6.29203 10.8321 6.1728 10.8321C6.05357 10.8321 5.93923 10.7864 5.85503 10.705L3.34883 8.28267C3.26462 8.20131 3.15029 8.15559 3.03106 8.15559C2.91183 8.15559 2.7975 8.20131 2.7133 8.28267L0.207092 10.705C0.0318809 10.8739 0.0318809 11.1477 0.207092 11.3166L5.85503 16.7609C5.93923 16.8422 6.05357 16.8879 6.1728 16.8879C6.29203 16.8879 6.40636 16.8422 6.49056 16.7609L20.2172 3.52451C20.3883 3.35631 20.3883 3.08712 20.2172 2.91892Z" fill="white"/>
</svg>
