<svg width="21" height="18" viewBox="0 0 21 18" fill="none" xmlns="http://www.w3.org/2000/svg">
<path opacity="0.5" d="M20.2172 3.42332L17.711 1.00098C17.6268 0.919625 17.5125 0.873901 17.3933 0.873901C17.274 0.873901 17.1597 0.919625 17.0755 1.00098L6.49056 11.2094C6.40636 11.2908 6.29203 11.3365 6.1728 11.3365C6.05357 11.3365 5.93923 11.2908 5.85503 11.2094L3.34883 8.78707C3.26462 8.70571 3.15029 8.65999 3.03106 8.65999C2.91183 8.65999 2.7975 8.70571 2.7133 8.78707L0.207092 11.2094C0.0318809 11.3783 0.0318809 11.6521 0.207092 11.821L5.85503 17.2652C5.93923 17.3466 6.05357 17.3923 6.1728 17.3923C6.29203 17.3923 6.40636 17.3466 6.49056 17.2652L20.2172 4.0289C20.3883 3.86071 20.3883 3.59152 20.2172 3.42332Z" fill="white"/>
</svg>
