<svg width="21" height="18" viewBox="0 0 21 18" fill="none" xmlns="http://www.w3.org/2000/svg">
<path opacity="0.5" d="M20.603 3.41441L18.0968 0.992071C18.0126 0.910714 17.8982 0.86499 17.779 0.86499C17.6598 0.86499 17.5455 0.910714 17.4613 0.992071L6.8763 11.2005C6.7921 11.2818 6.67777 11.3276 6.55854 11.3276C6.43931 11.3276 6.32498 11.2818 6.24077 11.2005L3.73457 8.77815C3.65037 8.6968 3.53604 8.65107 3.4168 8.65107C3.29757 8.65107 3.18324 8.6968 3.09904 8.77815L0.592834 11.2005C0.417623 11.3694 0.417623 11.6432 0.592834 11.8121L6.24077 17.2563C6.32498 17.3377 6.43931 17.3834 6.55854 17.3834C6.67777 17.3834 6.7921 17.3377 6.8763 17.2563L20.603 4.01999C20.7741 3.85179 20.7741 3.58261 20.603 3.41441Z" fill="white"/>
</svg>
