<svg width="10" height="10" viewBox="0 0 10 10" fill="none" xmlns="http://www.w3.org/2000/svg">
<mask id="path-1-inside-1_1_6568" fill="white">
<path fill-rule="evenodd" clip-rule="evenodd" d="M4.68427 1.21094L5.80623 3.4839L8.3152 3.85062L6.49974 5.61889L6.92818 8.11697L4.68427 6.93691L2.44036 8.11697L2.86881 5.61889L1.05334 3.85062L3.56232 3.4839L4.68427 1.21094Z"/>
</mask>
<path d="M4.68427 1.21094L8.59133 -0.717624C7.85728 -2.20472 6.34267 -3.14618 4.68427 -3.14618C3.02587 -3.14618 1.51126 -2.20472 0.777215 -0.717624L4.68427 1.21094ZM5.80623 3.4839L1.89917 5.41246C2.5333 6.69715 3.75846 7.588 5.17607 7.7952L5.80623 3.4839ZM8.3152 3.85062L11.3553 6.97188C12.5431 5.81493 12.9713 4.08405 12.4599 2.50674C11.9485 0.929437 10.5861 -0.220866 8.94536 -0.460681L8.3152 3.85062ZM6.49974 5.61889L3.45963 2.49763C2.4319 3.49864 1.96281 4.94142 2.20533 6.35543L6.49974 5.61889ZM6.92818 8.11697L4.90016 11.9733C6.36814 12.7453 8.14711 12.6169 9.48901 11.6421C10.8309 10.6673 11.503 9.01515 11.2226 7.38042L6.92818 8.11697ZM4.68427 6.93691L6.7123 3.08055C5.44271 2.41288 3.92584 2.41288 2.65625 3.08055L4.68427 6.93691ZM2.44036 8.11697L-1.85405 7.38042C-2.13443 9.01515 -1.46236 10.6673 -0.120466 11.6421C1.22143 12.6169 3.0004 12.7453 4.46838 11.9733L2.44036 8.11697ZM2.86881 5.61889L7.16322 6.35543C7.40574 4.94142 6.93664 3.49864 5.90891 2.49763L2.86881 5.61889ZM1.05334 3.85062L0.423183 -0.460681C-1.21753 -0.220866 -2.57992 0.929437 -3.09134 2.50674C-3.60277 4.08405 -3.17459 5.81493 -1.98676 6.97188L1.05334 3.85062ZM3.56232 3.4839L4.19248 7.7952C5.61008 7.588 6.83524 6.69715 7.46937 5.41246L3.56232 3.4839ZM0.777215 3.1395L1.89917 5.41246L9.71329 1.55534L8.59133 -0.717624L0.777215 3.1395ZM5.17607 7.7952L7.68504 8.16193L8.94536 -0.460681L6.43639 -0.827405L5.17607 7.7952ZM5.2751 0.72937L3.45963 2.49763L9.53984 8.74014L11.3553 6.97188L5.2751 0.72937ZM2.20533 6.35543L2.63378 8.85351L11.2226 7.38042L10.7941 4.88234L2.20533 6.35543ZM8.95621 4.2606L6.7123 3.08055L2.65625 10.7933L4.90016 11.9733L8.95621 4.2606ZM2.65625 3.08055L0.412333 4.2606L4.46838 11.9733L6.7123 10.7933L2.65625 3.08055ZM6.73477 8.85351L7.16322 6.35543L-1.4256 4.88235L-1.85405 7.38042L6.73477 8.85351ZM5.90891 2.49763L4.09345 0.72937L-1.98676 6.97188L-0.171295 8.74014L5.90891 2.49763ZM1.68351 8.16193L4.19248 7.7952L2.93215 -0.827405L0.423183 -0.460681L1.68351 8.16193ZM7.46937 5.41246L8.59133 3.1395L0.777215 -0.717624L-0.344742 1.55534L7.46937 5.41246Z" fill="#FFD450" mask="url(#path-1-inside-1_1_6568)"/>
</svg>
