<svg width="10" height="10" viewBox="0 0 10 10" fill="none" xmlns="http://www.w3.org/2000/svg">
<mask id="path-1-inside-1_1_6565" fill="white">
<path fill-rule="evenodd" clip-rule="evenodd" d="M4.97022 1.21069L6.09218 3.48366L8.60115 3.85038L6.78568 5.61864L7.21413 8.11672L4.97022 6.93667L2.72631 8.11672L3.15476 5.61864L1.33929 3.85038L3.84826 3.48366L4.97022 1.21069Z"/>
</mask>
<path d="M4.97022 1.21069L8.87728 -0.717869C8.14323 -2.20497 6.62862 -3.14642 4.97022 -3.14642C3.31182 -3.14642 1.79721 -2.20497 1.06316 -0.717869L4.97022 1.21069ZM6.09218 3.48366L2.18512 5.41222C2.81925 6.6969 4.04441 7.58775 5.46202 7.79496L6.09218 3.48366ZM8.60115 3.85038L11.6413 6.97163C12.8291 5.81469 13.2573 4.08381 12.7458 2.5065C12.2344 0.929193 10.872 -0.22111 9.23131 -0.460925L8.60115 3.85038ZM6.78568 5.61864L3.74558 2.49739C2.71785 3.4984 2.24876 4.94117 2.49128 6.35518L6.78568 5.61864ZM7.21413 8.11672L5.18611 11.9731C6.65409 12.7451 8.43306 12.6167 9.77496 11.6419C11.1169 10.667 11.7889 9.01491 11.5085 7.38018L7.21413 8.11672ZM4.97022 6.93667L6.99825 3.0803C5.72866 2.41264 4.21178 2.41264 2.9422 3.0803L4.97022 6.93667ZM2.72631 8.11672L-1.5681 7.38018C-1.84848 9.01491 -1.17641 10.667 0.165484 11.6419C1.50738 12.6167 3.28635 12.7451 4.75433 11.9731L2.72631 8.11672ZM3.15476 5.61864L7.44917 6.35518C7.69169 4.94117 7.22259 3.4984 6.19486 2.49739L3.15476 5.61864ZM1.33929 3.85038L0.709133 -0.460925C-0.931583 -0.22111 -2.29397 0.929193 -2.80539 2.5065C-3.31682 4.08381 -2.88864 5.81469 -1.70081 6.97163L1.33929 3.85038ZM3.84826 3.48366L4.47843 7.79496C5.89603 7.58775 7.12119 6.6969 7.75532 5.41222L3.84826 3.48366ZM1.06316 3.13926L2.18512 5.41222L9.99923 1.55509L8.87728 -0.717869L1.06316 3.13926ZM5.46202 7.79496L7.97099 8.16168L9.23131 -0.460925L6.72234 -0.827649L5.46202 7.79496ZM5.56105 0.729126L3.74558 2.49739L9.82579 8.73989L11.6413 6.97163L5.56105 0.729126ZM2.49128 6.35518L2.91972 8.85326L11.5085 7.38018L11.0801 4.8821L2.49128 6.35518ZM9.24216 4.26036L6.99825 3.0803L2.9422 10.793L5.18611 11.9731L9.24216 4.26036ZM2.9422 3.0803L0.698283 4.26036L4.75433 11.9731L6.99825 10.793L2.9422 3.0803ZM7.02072 8.85326L7.44917 6.35518L-1.13965 4.8821L-1.5681 7.38018L7.02072 8.85326ZM6.19486 2.49739L4.3794 0.729126L-1.70081 6.97163L0.114655 8.73989L6.19486 2.49739ZM1.96946 8.16168L4.47843 7.79496L3.2181 -0.827649L0.709133 -0.460925L1.96946 8.16168ZM7.75532 5.41222L8.87728 3.13926L1.06316 -0.717869L-0.058792 1.55509L7.75532 5.41222Z" fill="#FFD450" mask="url(#path-1-inside-1_1_6565)"/>
</svg>
