<svg width="9" height="10" viewBox="0 0 9 10" fill="none" xmlns="http://www.w3.org/2000/svg">
<mask id="path-1-inside-1_1_6571" fill="white">
<path fill-rule="evenodd" clip-rule="evenodd" d="M4.39851 1.21094L5.52046 3.4839L8.02943 3.85062L6.21397 5.61889L6.64242 8.11697L4.39851 6.93691L2.15459 8.11697L2.58304 5.61889L0.767578 3.85062L3.27655 3.4839L4.39851 1.21094Z"/>
</mask>
<path d="M4.39851 1.21094L8.30556 -0.717624C7.57151 -2.20472 6.05691 -3.14618 4.39851 -3.14618C2.7401 -3.14618 1.2255 -2.20472 0.491448 -0.717624L4.39851 1.21094ZM5.52046 3.4839L1.6134 5.41246C2.24754 6.69715 3.47269 7.588 4.8903 7.7952L5.52046 3.4839ZM8.02943 3.85062L11.0695 6.97188C12.2574 5.81493 12.6855 4.08405 12.1741 2.50674C11.6627 0.929437 10.3003 -0.220866 8.65959 -0.460681L8.02943 3.85062ZM6.21397 5.61889L3.17387 2.49763C2.14614 3.49864 1.67704 4.94142 1.91956 6.35543L6.21397 5.61889ZM6.64242 8.11697L4.61439 11.9733C6.08237 12.7453 7.86135 12.6169 9.20324 11.6421C10.5451 10.6673 11.2172 9.01515 10.9368 7.38042L6.64242 8.11697ZM4.39851 6.93691L6.42653 3.08055C5.15694 2.41288 3.64007 2.41288 2.37048 3.08055L4.39851 6.93691ZM2.15459 8.11697L-2.13982 7.38042C-2.42019 9.01515 -1.74813 10.6673 -0.406232 11.6421C0.935664 12.6169 2.71464 12.7453 4.18262 11.9733L2.15459 8.11697ZM2.58304 5.61889L6.87745 6.35543C7.11997 4.94142 6.65087 3.49864 5.62314 2.49763L2.58304 5.61889ZM0.767578 3.85062L0.137416 -0.460681C-1.5033 -0.220866 -2.86568 0.929437 -3.37711 2.50674C-3.88854 4.08405 -3.46035 5.81493 -2.27252 6.97188L0.767578 3.85062ZM3.27655 3.4839L3.90671 7.7952C5.32432 7.588 6.54947 6.69715 7.18361 5.41246L3.27655 3.4839ZM0.491448 3.1395L1.6134 5.41246L9.42752 1.55534L8.30556 -0.717624L0.491448 3.1395ZM4.8903 7.7952L7.39927 8.16193L8.65959 -0.460681L6.15062 -0.827405L4.8903 7.7952ZM4.98933 0.72937L3.17387 2.49763L9.25407 8.74014L11.0695 6.97188L4.98933 0.72937ZM1.91956 6.35543L2.34801 8.85351L10.9368 7.38042L10.5084 4.88234L1.91956 6.35543ZM8.67044 4.2606L6.42653 3.08055L2.37048 10.7933L4.61439 11.9733L8.67044 4.2606ZM2.37048 3.08055L0.126567 4.2606L4.18262 11.9733L6.42653 10.7933L2.37048 3.08055ZM6.449 8.85351L6.87745 6.35543L-1.71137 4.88235L-2.13982 7.38042L6.449 8.85351ZM5.62314 2.49763L3.80768 0.72937L-2.27252 6.97188L-0.457061 8.74014L5.62314 2.49763ZM1.39774 8.16193L3.90671 7.7952L2.64639 -0.827405L0.137416 -0.460681L1.39774 8.16193ZM7.18361 5.41246L8.30556 3.1395L0.491448 -0.717624L-0.630508 1.55534L7.18361 5.41246Z" fill="#FFD450" mask="url(#path-1-inside-1_1_6571)"/>
</svg>
