<svg width="10" height="10" viewBox="0 0 10 10" fill="none" xmlns="http://www.w3.org/2000/svg">
<mask id="path-1-inside-1_1_6574" fill="white">
<path fill-rule="evenodd" clip-rule="evenodd" d="M5.11417 1.21094L6.23613 3.4839L8.7451 3.85062L6.92964 5.61889L7.35809 8.11697L5.11417 6.93691L2.87026 8.11697L3.29871 5.61889L1.48325 3.85062L3.99222 3.4839L5.11417 1.21094Z"/>
</mask>
<path d="M5.11417 1.21094L9.02123 -0.717624C8.28718 -2.20472 6.77257 -3.14618 5.11417 -3.14618C3.45577 -3.14618 1.94116 -2.20472 1.20712 -0.717624L5.11417 1.21094ZM6.23613 3.4839L2.32907 5.41246C2.96321 6.69715 4.18836 7.588 5.60597 7.7952L6.23613 3.4839ZM8.7451 3.85062L11.7852 6.97188C12.973 5.81493 13.4012 4.08405 12.8898 2.50674C12.3784 0.929437 11.016 -0.220866 9.37526 -0.460681L8.7451 3.85062ZM6.92964 5.61889L3.88953 2.49763C2.86181 3.49864 2.39271 4.94142 2.63523 6.35543L6.92964 5.61889ZM7.35809 8.11697L5.33006 11.9733C6.79804 12.7453 8.57701 12.6169 9.91891 11.6421C11.2608 10.6673 11.9329 9.01515 11.6525 7.38042L7.35809 8.11697ZM5.11417 6.93691L7.1422 3.08055C5.87261 2.41288 4.35574 2.41288 3.08615 3.08055L5.11417 6.93691ZM2.87026 8.11697L-1.42415 7.38042C-1.70452 9.01515 -1.03246 10.6673 0.309436 11.6421C1.65133 12.6169 3.4303 12.7453 4.89829 11.9733L2.87026 8.11697ZM3.29871 5.61889L7.59312 6.35543C7.83564 4.94142 7.36654 3.49864 6.33881 2.49763L3.29871 5.61889ZM1.48325 3.85062L0.853084 -0.460681C-0.787631 -0.220866 -2.15001 0.929437 -2.66144 2.50674C-3.17287 4.08405 -2.74468 5.81493 -1.55686 6.97188L1.48325 3.85062ZM3.99222 3.4839L4.62238 7.7952C6.03998 7.588 7.26514 6.69715 7.89927 5.41246L3.99222 3.4839ZM1.20712 3.1395L2.32907 5.41246L10.1432 1.55534L9.02123 -0.717624L1.20712 3.1395ZM5.60597 7.7952L8.11494 8.16193L9.37526 -0.460681L6.86629 -0.827405L5.60597 7.7952ZM5.705 0.72937L3.88953 2.49763L9.96974 8.74014L11.7852 6.97188L5.705 0.72937ZM2.63523 6.35543L3.06368 8.85351L11.6525 7.38042L11.224 4.88235L2.63523 6.35543ZM9.38611 4.2606L7.1422 3.08055L3.08615 10.7933L5.33006 11.9733L9.38611 4.2606ZM3.08615 3.08055L0.842234 4.2606L4.89829 11.9733L7.1422 10.7933L3.08615 3.08055ZM7.16467 8.85351L7.59312 6.35543L-0.9957 4.88235L-1.42415 7.38042L7.16467 8.85351ZM6.33881 2.49763L4.52335 0.72937L-1.55686 6.97188L0.258607 8.74014L6.33881 2.49763ZM2.11341 8.16193L4.62238 7.7952L3.36205 -0.827405L0.853084 -0.460681L2.11341 8.16193ZM7.89927 5.41246L9.02123 3.1395L1.20712 -0.717624L0.0851592 1.55534L7.89927 5.41246Z" fill="#FFD450" mask="url(#path-1-inside-1_1_6574)"/>
</svg>
