<svg width="10" height="10" viewBox="0 0 10 10" fill="none" xmlns="http://www.w3.org/2000/svg">
<mask id="path-1-inside-1_1_6577" fill="white">
<path fill-rule="evenodd" clip-rule="evenodd" d="M4.8285 1.21094L5.95045 3.4839L8.45942 3.85062L6.64396 5.61889L7.07241 8.11697L4.8285 6.93691L2.58458 8.11697L3.01303 5.61889L1.19757 3.85062L3.70654 3.4839L4.8285 1.21094Z"/>
</mask>
<path d="M4.8285 1.21094L8.73555 -0.717624C8.00151 -2.20472 6.4869 -3.14618 4.8285 -3.14618C3.1701 -3.14618 1.65549 -2.20472 0.921441 -0.717624L4.8285 1.21094ZM5.95045 3.4839L2.0434 5.41246C2.67753 6.69715 3.90269 7.588 5.32029 7.7952L5.95045 3.4839ZM8.45942 3.85062L11.4995 6.97188C12.6874 5.81493 13.1155 4.08405 12.6041 2.50674C12.0927 0.929437 10.7303 -0.220866 9.08959 -0.460681L8.45942 3.85062ZM6.64396 5.61889L3.60386 2.49763C2.57613 3.49864 2.10703 4.94142 2.34955 6.35543L6.64396 5.61889ZM7.07241 8.11697L5.04439 11.9733C6.51237 12.7453 8.29134 12.6169 9.63324 11.6421C10.9751 10.6673 11.6472 9.01515 11.3668 7.38042L7.07241 8.11697ZM4.8285 6.93691L6.85652 3.08055C5.58693 2.41288 4.07006 2.41288 2.80047 3.08055L4.8285 6.93691ZM2.58458 8.11697L-1.70982 7.38042C-1.9902 9.01515 -1.31814 10.6673 0.0237604 11.6421C1.36566 12.6169 3.14463 12.7453 4.61261 11.9733L2.58458 8.11697ZM3.01303 5.61889L7.30744 6.35543C7.54996 4.94142 7.08086 3.49864 6.05314 2.49763L3.01303 5.61889ZM1.19757 3.85062L0.567409 -0.460681C-1.07331 -0.220866 -2.43569 0.929437 -2.94712 2.50674C-3.45854 4.08405 -3.03036 5.81493 -1.84253 6.97188L1.19757 3.85062ZM3.70654 3.4839L4.3367 7.7952C5.75431 7.588 6.97947 6.69715 7.6136 5.41246L3.70654 3.4839ZM0.921441 3.1395L2.0434 5.41246L9.85751 1.55534L8.73555 -0.717624L0.921441 3.1395ZM5.32029 7.7952L7.82926 8.16193L9.08959 -0.460681L6.58062 -0.827405L5.32029 7.7952ZM5.41932 0.72937L3.60386 2.49763L9.68406 8.74014L11.4995 6.97188L5.41932 0.72937ZM2.34955 6.35543L2.778 8.85351L11.3668 7.38042L10.9384 4.88234L2.34955 6.35543ZM9.10044 4.2606L6.85652 3.08055L2.80047 10.7933L5.04439 11.9733L9.10044 4.2606ZM2.80047 3.08055L0.556559 4.2606L4.61261 11.9733L6.85652 10.7933L2.80047 3.08055ZM6.87899 8.85351L7.30744 6.35543L-1.28138 4.88235L-1.70982 7.38042L6.87899 8.85351ZM6.05314 2.49763L4.23767 0.72937L-1.84253 6.97188L-0.0270685 8.74014L6.05314 2.49763ZM1.82773 8.16193L4.3367 7.7952L3.07638 -0.827405L0.567409 -0.460681L1.82773 8.16193ZM7.6136 5.41246L8.73555 3.1395L0.921441 -0.717624L-0.200516 1.55534L7.6136 5.41246Z" fill="white" mask="url(#path-1-inside-1_1_6577)"/>
</svg>
