<svg width="10" height="10" viewBox="0 0 10 10" fill="none" xmlns="http://www.w3.org/2000/svg">
<mask id="path-1-inside-1_1_6580" fill="white">
<path fill-rule="evenodd" clip-rule="evenodd" d="M4.82764 1.21094V3.21089V3.85062V4.69934V5.61889V6.55346V6.93691L2.58373 8.11697L3.01218 5.61889L1.19672 3.85062L3.70569 3.4839L4.82764 1.21094Z"/>
</mask>
<path d="M4.82764 1.21094H9.18476C9.18476 -0.813967 7.78975 -2.57199 5.81783 -3.03217C3.84591 -3.49235 1.81686 -2.53337 0.920586 -0.717624L4.82764 1.21094ZM4.82764 6.93691L6.85567 10.7933C8.28792 10.0401 9.18476 8.55514 9.18476 6.93691H4.82764ZM2.58373 8.11697L-1.71068 7.38042C-1.99105 9.01515 -1.31899 10.6673 0.0229061 11.6421C1.3648 12.6169 3.14377 12.7453 4.61176 11.9733L2.58373 8.11697ZM3.01218 5.61889L7.30659 6.35543C7.54911 4.94142 7.08001 3.49864 6.05228 2.49763L3.01218 5.61889ZM1.19672 3.85062L0.566554 -0.460681C-1.07416 -0.220866 -2.43654 0.929437 -2.94797 2.50674C-3.4594 4.08405 -3.03121 5.81493 -1.84339 6.97188L1.19672 3.85062ZM3.70569 3.4839L4.33585 7.7952C5.75345 7.588 6.97861 6.69715 7.61274 5.41246L3.70569 3.4839ZM0.470529 1.21094V3.21089H9.18476V1.21094H0.470529ZM0.470529 3.21089V3.85062H9.18476V3.21089H0.470529ZM2.79962 3.08055L0.555705 4.2606L4.61176 11.9733L6.85567 10.7933L2.79962 3.08055ZM6.87814 8.85351L7.30659 6.35543L-1.28223 4.88235L-1.71068 7.38042L6.87814 8.85351ZM6.05228 2.49763L4.23682 0.72937L-1.84339 6.97188L-0.027923 8.74014L6.05228 2.49763ZM1.82688 8.16193L4.33585 7.7952L3.07552 -0.827405L0.566554 -0.460681L1.82688 8.16193ZM7.61274 5.41246L8.7347 3.1395L0.920586 -0.717624L-0.20137 1.55534L7.61274 5.41246ZM0.470529 5.61889V6.55346H9.18476V5.61889H0.470529ZM0.470529 6.55346V6.93691H9.18476V6.55346H0.470529ZM0.470529 3.85062V4.69934H9.18476V3.85062H0.470529ZM0.470529 4.69934V5.61889H9.18476V4.69934H0.470529Z" fill="#FFD450" mask="url(#path-1-inside-1_1_6580)"/>
</svg>
