<svg width="13" height="13" viewBox="0 0 13 13" fill="none" xmlns="http://www.w3.org/2000/svg">
<path d="M6.08146 1.12231C3.62355 1.12231 1.62135 3.1245 1.62135 5.58243C1.62135 8.04033 3.62355 10.0464 6.08146 10.0464C7.13131 10.0464 8.09684 9.67851 8.85995 9.06764L10.7178 10.9245C10.8115 11.0143 10.9367 11.0639 11.0666 11.0626C11.1965 11.0613 11.3206 11.0092 11.4125 10.9174C11.5044 10.8256 11.5567 10.7015 11.5582 10.5717C11.5598 10.4418 11.5104 10.3165 11.4206 10.2226L9.5628 8.36482C10.1742 7.60055 10.5425 6.63349 10.5425 5.58243C10.5425 3.1245 8.53937 1.12231 6.08146 1.12231ZM6.08146 2.11368C8.0036 2.11368 9.55021 3.66028 9.55021 5.58243C9.55021 7.50457 8.0036 9.05506 6.08146 9.05506C4.15931 9.05506 2.6127 7.50457 2.6127 5.58243C2.6127 3.66028 4.15931 2.11368 6.08146 2.11368Z" fill="#555555"/>
</svg>
