<svg width="13" height="13" viewBox="0 0 13 13" fill="none" xmlns="http://www.w3.org/2000/svg">
<g clip-path="url(#clip0_1_6434)">
<path d="M10.4488 0.165039H2.97744C1.75615 0.166456 0.76644 1.15616 0.765022 2.37745V9.84882C0.76644 11.0701 1.75615 12.0598 2.97744 12.0612H10.4488C11.6701 12.0598 12.6598 11.0701 12.6612 9.84882V2.37745C12.6598 1.15616 11.6701 0.166456 10.4488 0.165039ZM11.84 2.37745V3.09473H9.75957L8.20363 0.986272H10.4488C11.2168 0.987131 11.8391 1.60947 11.84 2.37745ZM7.18297 0.986272L8.73891 3.09473H6.24327L4.68733 0.986272H7.18297ZM1.58625 2.37745C1.58711 1.6095 2.20946 0.987155 2.97744 0.986272H3.66669L5.22263 3.09473H1.58625V2.37745ZM10.4488 11.24H2.97744C2.20948 11.2391 1.58714 10.6168 1.58625 9.84882V3.91599H11.84V9.84882C11.8391 10.6168 11.2168 11.2391 10.4488 11.24Z" fill="#555555"/>
<path d="M8.90366 7.22189L5.65509 5.34634C5.45869 5.23295 5.20757 5.30024 5.09418 5.49664C5.05814 5.55908 5.03916 5.62987 5.03916 5.70197V9.4531C5.03916 9.67987 5.22299 9.86373 5.44977 9.86373C5.52184 9.86373 5.59266 9.84477 5.65509 9.80871L8.90366 7.93313C9.10006 7.81975 9.16735 7.56863 9.05396 7.37222C9.0179 7.30977 8.96607 7.25793 8.90366 7.22189ZM5.86039 8.74189V6.41316L7.87712 7.5775L5.86039 8.74189Z" fill="#555555"/>
</g>
<defs>
<clipPath id="clip0_1_6434">
<rect width="11.8962" height="11.8962" fill="white" transform="translate(0.764839 0.164795)"/>
</clipPath>
</defs>
</svg>
