<svg width="13" height="14" viewBox="0 0 13 14" fill="none" xmlns="http://www.w3.org/2000/svg">
<path d="M7.56751 1.63515L7.56723 1.63495C7.26786 1.42574 6.91144 1.31354 6.54621 1.31354C6.18099 1.31354 5.82457 1.42574 5.5252 1.63495L5.52492 1.63515L1.6419 4.35326C1.64185 4.3533 1.64181 4.35333 1.64176 4.35336C1.4072 4.51746 1.21567 4.7357 1.08342 4.98959C0.951157 5.24353 0.8821 5.52562 0.88211 5.81194C0.88211 5.81194 0.88211 5.81195 0.88211 5.81196V11.1314C0.88211 11.6037 1.06974 12.0567 1.40374 12.3907C1.73773 12.7247 2.19072 12.9123 2.66305 12.9123H3.75519C4.13098 12.9123 4.49137 12.7631 4.75709 12.4973C5.02281 12.2316 5.17209 11.8712 5.17209 11.4954V10.4033C5.17209 10.0389 5.31686 9.68934 5.57456 9.43164C5.83226 9.17394 6.18177 9.02917 6.54621 9.02917C6.91066 9.02917 7.26017 9.17394 7.51787 9.43164C7.77557 9.68934 7.92034 10.0389 7.92034 10.4033V11.4954C7.92034 11.8712 8.06962 12.2316 8.33534 12.4973C8.60106 12.7631 8.96145 12.9123 9.33724 12.9123H10.4294C10.9017 12.9123 11.3547 12.7247 11.6887 12.3907C12.0227 12.0567 12.2103 11.6037 12.2103 11.1314V5.81196C12.2103 5.81195 12.2103 5.81195 12.2103 5.81194C12.2103 5.52562 12.1413 5.24353 12.009 4.98959C11.8768 4.7357 11.6852 4.51746 11.4507 4.35336C11.4506 4.35333 11.4506 4.3533 11.4505 4.35326L7.56751 1.63515Z" stroke="#555555" stroke-width="0.892212"/>
</svg>
