<svg width="16" height="17" viewBox="0 0 16 17" fill="none" xmlns="http://www.w3.org/2000/svg">
<path d="M3.79585 8.56405L1.53252 2.74539C1.37518 2.34072 1.76985 1.95339 2.16052 2.09072L2.22252 2.11739L14.2225 8.11739C14.2998 8.15608 14.3657 8.21413 14.4138 8.28587C14.4619 8.35761 14.4906 8.44059 14.4971 8.52674C14.5037 8.61288 14.4877 8.69924 14.4509 8.7774C14.4141 8.85556 14.3577 8.92285 14.2872 8.97272L14.2225 9.01139L2.22252 15.0114C1.83385 15.2054 1.41118 14.8487 1.51252 14.4467L1.53252 14.3827L3.79585 8.56405ZM2.93452 3.59072L4.67452 8.06405H9.09252C9.21334 8.06406 9.33008 8.10782 9.42114 8.18723C9.51219 8.26665 9.57142 8.37635 9.58785 8.49605L9.59251 8.56405C9.59249 8.68498 9.54864 8.8018 9.46909 8.89287C9.38953 8.98395 9.27967 9.0431 9.15985 9.05939L9.09252 9.06405H4.67318L2.93385 13.5374L12.8812 8.56405L2.93452 3.59072Z" fill="white"/>
</svg>
