<svg width="108" height="28" viewBox="0 0 108 28" fill="none" xmlns="http://www.w3.org/2000/svg">
<path d="M28.523 10.1006H39.3425V12.1148H35.0825V23.469H32.7474V12.1148H28.5052L28.523 10.1006ZM38.8791 13.7903H40.8754V15.6618H40.9111C40.9824 15.3945 41.1072 15.1449 41.2854 14.8954C41.4637 14.6459 41.6776 14.4141 41.9449 14.2181C42.1945 14.0042 42.4797 13.8437 42.8005 13.719C43.1035 13.5942 43.4244 13.5229 43.7452 13.5229C43.9948 13.5229 44.173 13.5407 44.2621 13.5407C44.3512 13.5586 44.4582 13.5764 44.5473 13.5764V15.6262C44.4047 15.5906 44.2443 15.5727 44.0839 15.5549C43.9235 15.5371 43.7809 15.5193 43.6204 15.5193C43.2639 15.5193 42.9253 15.5906 42.6044 15.7331C42.2836 15.8757 42.0162 16.0896 41.7667 16.357C41.535 16.6422 41.3389 16.9809 41.1963 17.3908C41.0537 17.8008 40.9824 18.2821 40.9824 18.8168V23.4155H38.8434L38.8791 13.7903ZM54.3508 23.469H52.2475V22.1143H52.2119C51.9445 22.6134 51.5524 22.9878 51.0355 23.2908C50.5186 23.5938 49.9838 23.7364 49.4491 23.7364C48.1835 23.7364 47.2567 23.4334 46.6863 22.7917C46.1159 22.1678 45.8307 21.2053 45.8307 19.9397V13.7903H47.9696V19.7259C47.9696 20.5814 48.1301 21.1875 48.4687 21.5261C48.7896 21.8826 49.253 22.0609 49.8412 22.0609C50.2868 22.0609 50.6611 21.9896 50.9642 21.847C51.2672 21.7044 51.5167 21.5261 51.695 21.2944C51.891 21.0627 52.0158 20.7775 52.1049 20.4567C52.1941 20.1358 52.2297 19.7793 52.2297 19.405V13.7903H54.3687V23.469H54.3508ZM57.9871 20.3675C58.0583 20.9914 58.2901 21.4192 58.7 21.6866C59.11 21.9361 59.6091 22.0609 60.1795 22.0609C60.3755 22.0609 60.6073 22.043 60.8568 22.0074C61.1064 21.9718 61.3559 21.9183 61.5698 21.8292C61.8015 21.74 61.9798 21.6153 62.1224 21.437C62.265 21.2588 62.3363 21.0449 62.3184 20.7775C62.3006 20.5101 62.2115 20.2784 62.0154 20.1002C61.8193 19.9219 61.5876 19.7972 61.3024 19.6724C61.0172 19.5654 60.6786 19.4763 60.3042 19.405C59.9299 19.3337 59.5556 19.2446 59.1635 19.1555C58.7713 19.0663 58.3792 18.9594 58.0049 18.8346C57.6306 18.7099 57.3097 18.5494 57.0067 18.3177C56.7215 18.1038 56.472 17.8365 56.3115 17.4978C56.1333 17.1591 56.0442 16.767 56.0442 16.2679C56.0442 15.7331 56.1689 15.3054 56.4363 14.9489C56.6859 14.5924 57.0245 14.3072 57.4167 14.0933C57.8088 13.8794 58.2544 13.719 58.7357 13.6298C59.2169 13.5407 59.6804 13.5051 60.1082 13.5051C60.6073 13.5051 61.0885 13.5586 61.5341 13.6655C61.9798 13.7724 62.4075 13.9329 62.764 14.1824C63.1384 14.4141 63.4414 14.735 63.6731 15.1093C63.9226 15.4836 64.0652 15.947 64.1365 16.4818H61.9085C61.8015 15.9649 61.5698 15.6262 61.2133 15.448C60.839 15.2697 60.429 15.1806 59.9478 15.1806C59.8052 15.1806 59.6091 15.1984 59.413 15.2162C59.1991 15.2519 59.0209 15.2875 58.8248 15.3588C58.6466 15.4301 58.4861 15.5371 58.3614 15.6618C58.2366 15.7866 58.1653 15.9649 58.1653 16.1788C58.1653 16.4461 58.2544 16.6422 58.4327 16.8026C58.6109 16.963 58.8426 17.0878 59.1456 17.2126C59.4308 17.3195 59.7695 17.4087 60.1438 17.48C60.5181 17.5513 60.9103 17.6404 61.3024 17.7295C61.6946 17.8186 62.0689 17.9256 62.4432 18.0503C62.8175 18.1751 63.1562 18.3355 63.4414 18.5673C63.7266 18.7812 63.9761 19.0485 64.1544 19.3694C64.3326 19.6902 64.4217 20.1002 64.4217 20.5636C64.4217 21.134 64.297 21.6153 64.0296 22.0252C63.7622 22.4174 63.4236 22.756 63.0136 23.0056C62.6036 23.2551 62.1224 23.4334 61.6233 23.5581C61.1064 23.6651 60.6073 23.7364 60.1082 23.7364C59.5021 23.7364 58.9318 23.6651 58.4148 23.5225C57.8979 23.3799 57.4345 23.166 57.0602 22.8986C56.6859 22.6134 56.3828 22.2748 56.1689 21.847C55.955 21.437 55.8303 20.9379 55.8125 20.3497H57.9692V20.3675H57.9871ZM65.0278 13.7903H66.6498V10.867H68.7888V13.7724H70.7138V15.3588H68.7888V20.528C68.7888 20.7597 68.8066 20.9379 68.8244 21.1162C68.8422 21.2766 68.8957 21.4192 68.9492 21.5261C69.0205 21.6331 69.1274 21.7222 69.2522 21.7757C69.3948 21.8292 69.573 21.8648 69.8226 21.8648C69.9652 21.8648 70.1256 21.8648 70.2682 21.847C70.4108 21.8292 70.5712 21.8113 70.7138 21.7757V23.4334C70.4821 23.469 70.2504 23.4868 70.0186 23.5047C69.7869 23.5403 69.573 23.5403 69.3235 23.5403C68.7531 23.5403 68.3075 23.4868 67.9688 23.3799C67.6302 23.2729 67.3628 23.1125 67.1667 22.9165C66.9706 22.7026 66.8459 22.453 66.7746 22.15C66.7033 21.847 66.6676 21.4727 66.6498 21.0805V15.3767H65.0278V13.7546V13.7903ZM72.2111 13.7903H74.2253V15.1093H74.2609C74.5639 14.5389 74.9739 14.1468 75.5086 13.8972C76.0434 13.6477 76.6137 13.5229 77.2554 13.5229C78.0219 13.5229 78.6814 13.6477 79.2518 13.9329C79.8222 14.2002 80.2856 14.5567 80.6599 15.038C81.0342 15.5014 81.3194 16.054 81.4977 16.6779C81.6759 17.3017 81.7829 17.979 81.7829 18.6742C81.7829 19.3337 81.6938 19.9576 81.5333 20.5636C81.3551 21.1696 81.1055 21.7222 80.7669 22.1856C80.4282 22.6491 80.0004 23.0234 79.4657 23.3086C78.9309 23.5938 78.3249 23.7364 77.6119 23.7364C77.3089 23.7364 76.9881 23.7007 76.685 23.6473C76.382 23.5938 76.079 23.5047 75.7938 23.3799C75.5086 23.2551 75.2412 23.0947 75.0095 22.8986C74.76 22.7026 74.5639 22.4708 74.4035 22.2213H74.3678V27.0518H72.2289V13.7903H72.2111ZM79.6796 18.6386C79.6796 18.2108 79.6261 17.783 79.5013 17.373C79.3944 16.963 79.2161 16.6066 78.9844 16.2857C78.7527 15.9649 78.4675 15.7153 78.1467 15.5193C77.808 15.3232 77.4159 15.2341 76.9881 15.2341C76.0968 15.2341 75.4195 15.5371 74.9561 16.1609C74.5104 16.7848 74.2787 17.6226 74.2787 18.6564C74.2787 19.1555 74.3322 19.6011 74.457 20.011C74.5817 20.421 74.7422 20.7775 74.9917 21.0805C75.2234 21.3835 75.5086 21.6153 75.8473 21.7935C76.186 21.9717 76.5603 22.0609 77.0059 22.0609C77.505 22.0609 77.8971 21.9539 78.2358 21.7579C78.5744 21.5618 78.8418 21.2944 79.0735 20.9914C79.2874 20.6706 79.4479 20.3141 79.537 19.9041C79.6261 19.4763 79.6796 19.0663 79.6796 18.6386ZM83.4406 10.1006H85.5795V12.1148H83.4406V10.1006ZM83.4406 13.7903H85.5795V23.469H83.4406V13.7903ZM87.4867 10.1006H89.6257V23.469H87.4867V10.1006ZM96.1495 23.7364C95.383 23.7364 94.6879 23.6116 94.0818 23.3442C93.4758 23.0769 92.9767 22.7382 92.5489 22.2926C92.139 21.847 91.8181 21.2944 91.6042 20.6706C91.3903 20.0467 91.2656 19.3515 91.2656 18.6207C91.2656 17.8899 91.3725 17.2126 91.6042 16.5887C91.8181 15.9649 92.139 15.4301 92.5489 14.9667C92.9589 14.5211 93.4758 14.1646 94.0818 13.915C94.6879 13.6655 95.383 13.5229 96.1495 13.5229C96.9159 13.5229 97.6111 13.6477 98.2171 13.915C98.8232 14.1646 99.3223 14.5211 99.7501 14.9667C100.16 15.4123 100.481 15.9649 100.695 16.5887C100.909 17.2126 101.033 17.8899 101.033 18.6207C101.033 19.3694 100.926 20.0467 100.695 20.6706C100.463 21.2944 100.16 21.8292 99.7501 22.2926C99.3401 22.7382 98.8232 23.0947 98.2171 23.3442C97.6111 23.5938 96.9338 23.7364 96.1495 23.7364ZM96.1495 22.0431C96.6129 22.0431 97.0407 21.9361 97.3794 21.74C97.7359 21.544 98.0032 21.2766 98.235 20.9558C98.4667 20.6349 98.6271 20.2606 98.734 19.8685C98.841 19.4585 98.8945 19.0485 98.8945 18.6207C98.8945 18.2108 98.841 17.8008 98.734 17.3908C98.6271 16.9809 98.4667 16.6244 98.235 16.3035C98.0032 15.9827 97.7181 15.7332 97.3794 15.5371C97.0229 15.341 96.6129 15.2341 96.1495 15.2341C95.686 15.2341 95.2583 15.341 94.9196 15.5371C94.5631 15.7332 94.2957 16.0005 94.064 16.3035C93.8323 16.6244 93.6719 16.9809 93.5649 17.3908C93.458 17.8008 93.4045 18.2108 93.4045 18.6207C93.4045 19.0485 93.458 19.4585 93.5649 19.8685C93.6719 20.2784 93.8323 20.6349 94.064 20.9558C94.2957 21.2766 94.5809 21.544 94.9196 21.74C95.2761 21.9539 95.686 22.0431 96.1495 22.0431ZM101.675 13.7903H103.297V10.867H105.436V13.7724H107.361V15.3588H105.436V20.528C105.436 20.7597 105.454 20.9379 105.472 21.1162C105.49 21.2766 105.543 21.4192 105.597 21.5261C105.668 21.6331 105.775 21.7222 105.9 21.7757C106.042 21.8292 106.22 21.8648 106.47 21.8648C106.613 21.8648 106.773 21.8648 106.916 21.847C107.058 21.8292 107.219 21.8113 107.361 21.7757V23.4334C107.129 23.469 106.898 23.4868 106.666 23.5047C106.434 23.5403 106.22 23.5403 105.971 23.5403C105.4 23.5403 104.955 23.4868 104.616 23.3799C104.277 23.2729 104.01 23.1125 103.814 22.9165C103.618 22.7026 103.493 22.453 103.422 22.15C103.351 21.847 103.315 21.4727 103.297 21.0805V15.3767H101.675V13.7546V13.7903Z" fill="black"/>
<path d="M26.0265 10.1008H16.2408L13.2284 0.796387L10.1982 10.1008L0.412537 10.083L8.32665 15.8403L5.29647 25.1448L13.2106 19.3874L21.1247 25.1448L18.1123 15.8403L26.0265 10.1008Z" fill="#00B67A"/>
<path d="M18.7864 17.9427L18.1091 15.8394L13.2252 19.3864L18.7864 17.9427Z" fill="#005128"/>
</svg>
