<svg width="33" height="33" viewBox="0 0 33 33" fill="none" xmlns="http://www.w3.org/2000/svg">
<circle cx="16.3345" cy="16.0352" r="16" fill="#AAFEFE"/>
<g clip-path="url(#clip0_2_240)">
<path d="M22.9893 6.35562H9.67981C8.00921 6.35562 6.65493 7.7099 6.65493 9.3805V22.6899C6.65493 24.3605 8.00921 25.7148 9.67981 25.7148H22.9893C24.6599 25.7148 26.0141 24.3605 26.0141 22.6899V9.3805C26.0141 7.7099 24.6599 6.35562 22.9893 6.35562Z" fill="#1DA1F2"/>
<path d="M21.1743 13.0104C20.8113 13.1918 20.4484 13.2523 20.0249 13.3128C20.4484 13.0709 20.7509 12.7079 20.8718 12.2239C20.5089 12.4659 20.0854 12.5869 19.6014 12.7079C19.2384 12.3449 18.6939 12.1029 18.1495 12.1029C16.879 12.1029 15.9111 13.3128 16.2135 14.5228C14.5801 14.4623 13.1282 13.6758 12.0997 12.4659C11.5552 13.3733 11.8577 14.5228 12.7047 15.1278C12.4022 15.1278 12.0997 15.0068 11.7972 14.8858C11.7972 15.7932 12.4627 16.6402 13.3702 16.8822C13.0677 16.9427 12.7652 17.0032 12.4627 16.9427C12.7047 17.7292 13.4307 18.3341 14.3381 18.3341C13.6121 18.8786 12.5232 19.1811 11.4947 19.0601C12.4022 19.6046 13.4307 19.9676 14.5196 19.9676C18.21 19.9676 20.2669 16.8822 20.1459 14.0388C20.5694 13.7968 20.9323 13.4338 21.1743 13.0104Z" fill="white"/>
</g>
<defs>
<clipPath id="clip0_2_240">
<rect x="6.65493" y="6.35562" width="19.3592" height="19.3592" rx="9.6796" fill="white"/>
</clipPath>
</defs>
</svg>
