<svg width="142" height="24" viewBox="0 0 142 24" fill="none" xmlns="http://www.w3.org/2000/svg">
<g clip-path="url(#clip0_4_369)">
<path d="M130.004 7.95708C127.732 7.95708 125.9 9.76059 125.9 11.9965C125.9 14.2325 127.732 16.036 130.004 16.036C132.275 16.036 134.107 14.2325 134.107 11.9965C134.107 9.76059 132.275 7.95708 130.004 7.95708ZM130.004 14.6227C128.536 14.6227 127.336 13.445 127.336 11.9965C127.336 10.5481 128.532 9.37036 130.004 9.37036C131.475 9.37036 132.672 10.5481 132.672 11.9965C132.672 13.445 131.472 14.6227 130.004 14.6227ZM135.232 7.79184C135.232 8.31567 134.804 8.73403 134.275 8.73403C133.743 8.73403 133.318 8.31216 133.318 7.79184C133.318 7.27153 133.747 6.84966 134.275 6.84966C134.804 6.84966 135.232 7.27153 135.232 7.79184ZM137.95 8.74809C137.89 7.48598 137.597 6.36802 136.657 5.44692C135.722 4.52583 134.586 4.23755 133.304 4.17427C131.982 4.10044 128.022 4.10044 126.7 4.17427C125.422 4.23403 124.286 4.52231 123.347 5.44341C122.407 6.3645 122.118 7.48247 122.054 8.74458C121.979 10.0454 121.979 13.9442 122.054 15.245C122.115 16.5071 122.407 17.625 123.347 18.5461C124.286 19.4672 125.418 19.7555 126.7 19.8188C128.022 19.8926 131.982 19.8926 133.304 19.8188C134.586 19.759 135.722 19.4707 136.657 18.5461C137.593 17.625 137.886 16.5071 137.95 15.245C138.025 13.9442 138.025 10.0489 137.95 8.74809ZM136.243 16.6407C135.965 17.3297 135.425 17.8606 134.722 18.1383C133.668 18.5497 131.168 18.4547 130.004 18.4547C128.84 18.4547 126.336 18.5461 125.286 18.1383C124.586 17.8641 124.047 17.3332 123.765 16.6407C123.347 15.6036 123.443 13.1426 123.443 11.9965C123.443 10.8504 123.35 8.38598 123.765 7.35239C124.043 6.66333 124.582 6.13247 125.286 5.85474C126.34 5.44341 128.84 5.53833 130.004 5.53833C131.168 5.53833 133.672 5.44692 134.722 5.85474C135.422 6.12895 135.961 6.65981 136.243 7.35239C136.661 8.3895 136.565 10.8504 136.565 11.9965C136.565 13.1426 136.661 15.6071 136.243 16.6407Z" fill="white"/>
</g>
<g clip-path="url(#clip1_4_369)">
<path d="M86.6327 19V8.87953H83.2024V19H86.6327ZM84.918 7.49692C86.1142 7.49692 86.8588 6.71978 86.8588 5.74862C86.8365 4.75556 86.1142 4 84.9407 4C83.7673 4 83 4.75558 83 5.74862C83 6.71983 83.7444 7.49692 84.8956 7.49692H84.9179H84.918ZM88.5313 19H91.9617V13.3482C91.9617 13.0458 91.9839 12.7436 92.0745 12.5274C92.3225 11.923 92.8869 11.2971 93.8345 11.2971C95.0758 11.2971 95.5724 12.2252 95.5724 13.5857V18.9999H99.0025V13.1969C99.0025 10.0883 97.3101 8.64193 95.0532 8.64193C93.2027 8.64193 92.3902 9.65626 91.9388 10.3471H91.9617V8.87932H88.5314C88.5764 9.82897 88.5314 18.9998 88.5314 18.9998L88.5313 19Z" fill="white"/>
</g>
<g clip-path="url(#clip2_4_369)">
<path d="M60 6.7049C59.326 6.98937 58.611 7.1761 57.879 7.25887C58.6415 6.82346 59.227 6.13398 59.5027 5.31247C58.7778 5.72228 57.9847 6.01101 57.1577 6.1662C56.484 5.48248 55.5243 5.05518 54.4621 5.05518C52.4226 5.05518 50.7691 6.63041 50.7691 8.57326C50.7691 8.84904 50.8018 9.11752 50.8647 9.37508C47.7956 9.22831 45.0745 7.82771 43.253 5.69918C42.9352 6.21878 42.7531 6.82319 42.7531 7.46786C42.7531 8.68848 43.4051 9.76527 44.396 10.3962C43.8095 10.3787 43.236 10.2278 42.7232 9.95611C42.723 9.97085 42.723 9.98559 42.723 10.0004C42.723 11.705 43.996 13.1269 45.6853 13.4501C45.1415 13.591 44.5711 13.6117 44.0176 13.5104C44.4875 14.9082 45.8514 15.9253 47.4673 15.9537C46.2034 16.8973 44.6111 17.4598 42.8809 17.4598C42.5828 17.4598 42.2889 17.4431 42 17.4106C43.6343 18.4088 45.5754 18.9913 47.6609 18.9913C54.4535 18.9913 58.1679 13.6303 58.1679 8.98127C58.1679 8.82868 58.1644 8.67695 58.1573 8.5261C58.8802 8.02819 59.5042 7.41147 60 6.7049Z" fill="white"/>
</g>
<g clip-path="url(#clip3_4_369)">
<path d="M9.78645 19V12.4308H7.99951V10.0656H9.78645V8.04535C9.78645 6.45785 10.842 5 13.2742 5C14.259 5 14.9872 5.09177 14.9872 5.09177L14.9298 7.30049C14.9298 7.30049 14.1872 7.29347 13.3768 7.29347C12.4997 7.29347 12.3591 7.68638 12.3591 8.33851V10.0656H14.9995L14.8846 12.4308H12.3591V19H9.78645Z" fill="white"/>
</g>
<defs>
<clipPath id="clip0_4_369">
<rect width="16" height="18" fill="white" transform="translate(122 3)"/>
</clipPath>
<clipPath id="clip1_4_369">
<rect width="16" height="15" fill="white" transform="translate(83 4)"/>
</clipPath>
<clipPath id="clip2_4_369">
<rect width="18" height="14" fill="white" transform="translate(42 5)"/>
</clipPath>
<clipPath id="clip3_4_369">
<rect width="7" height="14" fill="white" transform="translate(7.99951 5)"/>
</clipPath>
</defs>
</svg>
