<svg width="14" height="14" viewBox="0 0 14 14" fill="none" xmlns="http://www.w3.org/2000/svg">
<circle cx="6.69688" cy="6.78257" r="6.37681" fill="white"/>
<path d="M6.69689 2.35425C7.16668 2.35425 7.61723 2.54087 7.94942 2.87306C8.28161 3.20525 8.46823 3.6558 8.46823 4.12558V5.01125H9.57531C9.75148 5.01125 9.92044 5.08123 10.045 5.20581C10.1696 5.33038 10.2396 5.49933 10.2396 5.6755V10.5467C10.2396 10.7228 10.1696 10.8918 10.045 11.0164C9.92044 11.1409 9.75148 11.2109 9.57531 11.2109H3.81847C3.6423 11.2109 3.47335 11.1409 3.34878 11.0164C3.2242 10.8918 3.15422 10.7228 3.15422 10.5467V5.6755C3.15422 5.49933 3.2242 5.33038 3.34878 5.20581C3.47335 5.08123 3.6423 5.01125 3.81847 5.01125H4.92556V4.12558C4.92556 3.6558 5.11218 3.20525 5.44437 2.87306C5.77656 2.54087 6.2271 2.35425 6.69689 2.35425ZM6.69689 7.44684C6.52072 7.44684 6.35177 7.51682 6.2272 7.64139C6.10262 7.76596 6.03264 7.93492 6.03264 8.11109C6.03264 8.28726 6.10262 8.45621 6.2272 8.58078C6.35177 8.70536 6.52072 8.77534 6.69689 8.77534C6.87306 8.77534 7.04202 8.70536 7.16659 8.58078C7.29116 8.45621 7.36114 8.28726 7.36114 8.11109C7.36114 7.93492 7.29116 7.76596 7.16659 7.64139C7.04202 7.51682 6.87306 7.44684 6.69689 7.44684ZM6.69689 3.23992C6.462 3.23992 6.23673 3.33323 6.07063 3.49932C5.90454 3.66542 5.81122 3.89069 5.81122 4.12558V5.01125H7.58256V4.12558C7.58256 3.89069 7.48925 3.66542 7.32315 3.49932C7.15706 3.33323 6.93179 3.23992 6.69689 3.23992Z" fill="#8C52FF"/>
</svg>
