<svg width="94" height="29" viewBox="0 0 94 29" fill="none" xmlns="http://www.w3.org/2000/svg">
<path d="M85.9044 0.175629H7.43699C7.15097 0.175629 6.86837 0.175629 6.58311 0.177038C6.34431 0.178446 6.10742 0.182539 5.86633 0.185984C5.34258 0.19155 4.82005 0.233164 4.3033 0.310464C3.78728 0.389447 3.28742 0.538352 2.82063 0.752143C2.35441 0.967742 1.92841 1.24789 1.55809 1.58243C1.18583 1.91602 0.875514 2.30162 0.639088 2.72438C0.402009 3.14629 0.237618 3.59842 0.151592 4.06513C0.064748 4.53126 0.0180166 5.00276 0.0118169 5.47541C0.00457856 5.69139 0.00381417 5.90808 0 6.12409V22.4065C0.00381417 22.6252 0.00457856 22.8371 0.0118169 23.0559C0.0180185 23.5285 0.0647499 24 0.151592 24.4661C0.23738 24.9331 0.401781 25.3855 0.639088 25.8076C0.875407 26.229 1.18576 26.613 1.55809 26.9447C1.92701 27.2808 2.35328 27.5611 2.82063 27.7751C3.28741 27.9894 3.78722 28.1392 4.3033 28.2194C4.82014 28.2961 5.34261 28.3377 5.86633 28.344C6.10742 28.3487 6.34431 28.3515 6.58311 28.3515C6.86837 28.3529 7.15098 28.3529 7.43699 28.3529H85.9044C86.1847 28.3529 86.4696 28.3529 86.7499 28.3515C86.9876 28.3515 87.2313 28.3487 87.469 28.344C87.9917 28.3381 88.5132 28.2964 89.029 28.2194C89.5467 28.1386 90.0483 27.9889 90.5174 27.7751C90.9843 27.561 91.4102 27.2806 91.7788 26.9447C92.1501 26.6117 92.4612 26.228 92.7004 25.8076C92.936 25.3852 93.0988 24.9328 93.1833 24.4661C93.2703 24 93.3187 23.5286 93.3281 23.0559C93.3311 22.8371 93.3311 22.6252 93.3311 22.4065C93.3372 22.1506 93.3372 21.8961 93.3372 21.636V6.89318C93.3372 6.63521 93.3372 6.37931 93.3311 6.12409C93.3311 5.90808 93.3311 5.69139 93.3281 5.47538C93.3187 5.00269 93.2703 4.5313 93.1833 4.06511C93.0985 3.59866 92.9357 3.14657 92.7004 2.72435C92.2189 1.87697 91.4555 1.18721 90.5174 0.752079C90.0483 0.538811 89.5467 0.389945 89.029 0.310401C88.5133 0.23276 87.9918 0.191132 87.469 0.185885C87.2313 0.182448 86.9876 0.17832 86.7499 0.176946C86.4696 0.175537 86.1847 0.175537 85.9044 0.175537V0.175629Z" fill="black"/>
<path d="M6.58664 27.7363C6.34899 27.7363 6.11708 27.7335 5.88129 27.7287C5.39285 27.723 4.90554 27.6846 4.42338 27.6138C3.97378 27.5439 3.53824 27.4138 3.13113 27.2279C2.72775 27.0435 2.35984 26.8017 2.04148 26.5118C1.71852 26.2252 1.44963 25.8929 1.24549 25.528C1.03909 25.1607 0.896257 24.767 0.821952 24.3606C0.74171 23.924 0.698295 23.4824 0.692083 23.0398C0.687138 22.8913 0.680664 22.3966 0.680664 22.3966V6.12383C0.680664 6.12383 0.687559 5.63678 0.692122 5.49369C0.69807 5.05179 0.741232 4.61093 0.821235 4.17494C0.895676 3.76744 1.03862 3.37261 1.24513 3.00411C1.44852 2.63943 1.71591 2.30688 2.03693 2.01935C2.35759 1.72908 2.72668 1.48604 3.13075 1.29909C3.53693 1.11374 3.97164 0.984574 4.42033 0.915918C4.90408 0.844465 5.39307 0.805834 5.88321 0.800349L6.58702 0.791748H86.7458L87.458 0.800694C87.9437 0.805907 88.4283 0.844193 88.9076 0.915228C89.3608 0.984745 89.8001 1.11481 90.2109 1.30115C91.0204 1.67791 91.679 2.27399 92.0946 3.00583C92.2978 3.37178 92.4385 3.7634 92.512 4.16738C92.593 4.60694 92.6383 5.05126 92.6476 5.49679C92.6498 5.69628 92.6498 5.91057 92.6498 6.12383C92.656 6.38799 92.656 6.63943 92.656 6.89292V21.6357C92.656 21.8917 92.656 22.1414 92.6498 22.3932C92.6498 22.6222 92.6498 22.8321 92.6468 23.0481C92.6377 23.4856 92.5931 23.922 92.5135 24.3537C92.4407 24.763 92.2986 25.1598 92.0923 25.5301C91.8867 25.8911 91.6194 26.2205 91.3001 26.5063C90.9815 26.7977 90.6129 27.041 90.2086 27.2265C89.7989 27.4139 89.3603 27.5445 88.9076 27.6138C88.4254 27.685 87.9381 27.7234 87.4496 27.7287C87.2212 27.7335 86.9819 27.7363 86.7497 27.7363L85.9041 27.7377L6.58664 27.7363Z" fill="white"/>
</svg>
