<svg width="94" height="29" viewBox="0 0 94 29" fill="none" xmlns="http://www.w3.org/2000/svg">
<path d="M86.2418 0.175629H7.77439C7.48837 0.175629 7.20578 0.175629 6.92051 0.177038C6.68171 0.178446 6.44482 0.182539 6.20373 0.185984C5.67998 0.19155 5.15746 0.233164 4.64071 0.310464C4.12468 0.389447 3.62482 0.538352 3.15803 0.752143C2.69181 0.967742 2.26582 1.24789 1.89549 1.58243C1.52323 1.91602 1.21292 2.30162 0.97649 2.72438C0.739411 3.14629 0.57502 3.59842 0.488994 4.06513C0.40215 4.53126 0.355419 5.00276 0.349219 5.47541C0.341981 5.69139 0.341217 5.90808 0.337402 6.12409V22.4065C0.341217 22.6252 0.341981 22.8371 0.349219 23.0559C0.355421 23.5285 0.402152 24 0.488994 24.4661C0.574782 24.9331 0.739183 25.3855 0.97649 25.8076C1.21281 26.229 1.52316 26.613 1.89549 26.9447C2.26441 27.2808 2.69068 27.5611 3.15803 27.7751C3.62482 27.9894 4.12462 28.1392 4.64071 28.2194C5.15754 28.2961 5.68001 28.3377 6.20373 28.344C6.44482 28.3487 6.68171 28.3515 6.92051 28.3515C7.20577 28.3529 7.48838 28.3529 7.77439 28.3529H86.2418C86.5221 28.3529 86.807 28.3529 87.0873 28.3515C87.325 28.3515 87.5687 28.3487 87.8064 28.344C88.3291 28.3381 88.8506 28.2964 89.3664 28.2194C89.8841 28.1386 90.3857 27.9889 90.8548 27.7751C91.3217 27.561 91.7476 27.2806 92.1162 26.9447C92.4875 26.6117 92.7986 26.228 93.0378 25.8076C93.2734 25.3852 93.4362 24.9328 93.5207 24.4661C93.6077 24 93.6561 23.5286 93.6655 23.0559C93.6685 22.8371 93.6685 22.6252 93.6685 22.4065C93.6746 22.1506 93.6746 21.8961 93.6746 21.636V6.89318C93.6746 6.63521 93.6746 6.37931 93.6685 6.12409C93.6685 5.90808 93.6685 5.69139 93.6655 5.47538C93.6561 5.00269 93.6077 4.5313 93.5207 4.06511C93.4359 3.59866 93.2731 3.14657 93.0378 2.72435C92.5564 1.87697 91.7929 1.18721 90.8548 0.752079C90.3857 0.538811 89.8841 0.389945 89.3664 0.310401C88.8507 0.23276 88.3292 0.191132 87.8064 0.185885C87.5687 0.182448 87.325 0.17832 87.0873 0.176946C86.807 0.175537 86.5221 0.175537 86.2418 0.175537V0.175629Z" fill="black"/>
<path d="M6.92453 27.7363C6.68688 27.7363 6.45497 27.7335 6.21919 27.7287C5.73074 27.723 5.24343 27.6846 4.76127 27.6138C4.31167 27.5439 3.87613 27.4138 3.46902 27.2279C3.06564 27.0435 2.69773 26.8017 2.37937 26.5118C2.05641 26.2252 1.78752 25.8929 1.58338 25.528C1.37698 25.1607 1.23415 24.767 1.15984 24.3606C1.0796 23.924 1.03619 23.4824 1.02997 23.0398C1.02503 22.8913 1.01855 22.3966 1.01855 22.3966V6.12383C1.01855 6.12383 1.02545 5.63678 1.03001 5.49369C1.03596 5.05179 1.07912 4.61093 1.15913 4.17494C1.23357 3.76744 1.37651 3.37261 1.58302 3.00411C1.78642 2.63943 2.0538 2.30688 2.37482 2.01935C2.69548 1.72908 3.06457 1.48604 3.46864 1.29909C3.87482 1.11374 4.30953 0.984574 4.75822 0.915918C5.24197 0.844465 5.73096 0.805834 6.2211 0.800349L6.92491 0.791748H87.0837L87.7959 0.800694C88.2816 0.805907 88.7662 0.844193 89.2455 0.915228C89.6987 0.984745 90.1379 1.11481 90.5488 1.30115C91.3583 1.67791 92.0169 2.27399 92.4324 3.00583C92.6357 3.37178 92.7764 3.7634 92.8499 4.16738C92.9309 4.60694 92.9762 5.05126 92.9855 5.49679C92.9877 5.69628 92.9877 5.91057 92.9877 6.12383C92.9939 6.38799 92.9939 6.63943 92.9939 6.89292V21.6357C92.9939 21.8917 92.9939 22.1414 92.9877 22.3932C92.9877 22.6222 92.9877 22.8321 92.9847 23.0481C92.9756 23.4856 92.931 23.922 92.8514 24.3537C92.7786 24.763 92.6365 25.1598 92.4302 25.5301C92.2246 25.8911 91.9573 26.2205 91.638 26.5063C91.3194 26.7977 90.9508 27.041 90.5465 27.2265C90.1368 27.4139 89.6982 27.5445 89.2455 27.6138C88.7633 27.685 88.276 27.7234 87.7875 27.7287C87.5591 27.7335 87.3198 27.7363 87.0875 27.7363L86.242 27.7377L6.92453 27.7363Z" fill="white"/>
</svg>
