<svg width="16" height="16" viewBox="0 0 16 16" fill="none" xmlns="http://www.w3.org/2000/svg">
<path d="M13.144 9.136C13.207 9.07397 13.257 9.00002 13.2912 8.91846C13.3253 8.8369 13.3429 8.74937 13.3429 8.66095C13.3429 8.57253 13.3253 8.48499 13.2912 8.40343C13.257 8.32188 13.207 8.24793 13.144 8.18589C13.081 8.12386 13.0063 8.07498 12.9242 8.0421C12.8421 8.00922 12.7543 7.99299 12.6659 7.99437C12.5775 7.99574 12.4902 8.01469 12.4092 8.05011C12.3282 8.08552 12.255 8.1367 12.194 8.20067L8.66666 11.78V2.66667C8.66666 2.48986 8.59643 2.32029 8.4714 2.19526C8.34638 2.07024 8.17681 2 8 2C7.82319 2 7.65362 2.07024 7.52859 2.19526C7.40357 2.32029 7.33333 2.48986 7.33333 2.66667V11.7767L3.81 8.2C3.68528 8.07721 3.51729 8.00838 3.34227 8.00838C3.16725 8.00838 2.99926 8.0772 2.87454 8.19999C2.74983 8.32278 2.6784 8.48969 2.67568 8.66468C2.67296 8.83968 2.73916 9.00873 2.86 9.13533L7.40866 13.752C7.48619 13.8306 7.57857 13.893 7.68042 13.9356C7.78228 13.9782 7.89159 14.0002 8.002 14.0002C8.11241 14.0002 8.22171 13.9782 8.32357 13.9356C8.42543 13.893 8.5178 13.8306 8.59533 13.752L13.144 9.13533V9.136Z" fill="white"/>
</svg>
