<svg width="18" height="19" viewBox="0 0 18 19" fill="none" xmlns="http://www.w3.org/2000/svg">
<g clip-path="url(#clip0_4_6311)">
<path d="M5.86139 0.511285C5.81498 0.519722 5.76717 0.52816 5.72639 0.556285C5.56186 0.667379 5.5253 0.898004 5.63639 1.06253L6.41264 2.22128C5.21311 2.85691 4.31873 3.913 4.02764 5.18003H13.9726C13.6815 3.913 12.7872 2.85691 11.5876 2.22128L12.3639 1.06253C12.475 0.898004 12.4384 0.667379 12.2739 0.556285C12.108 0.445191 11.8787 0.493003 11.7676 0.657535L10.9126 1.91753C10.3192 1.70097 9.67514 1.58003 9.00014 1.58003C8.32514 1.58003 7.68108 1.70097 7.08764 1.91753L6.23264 0.657535C6.14967 0.533785 5.9992 0.484566 5.86139 0.511285ZM7.02014 3.38003C7.31827 3.38003 7.56014 3.62191 7.56014 3.92003C7.56014 4.21957 7.31827 4.46003 7.02014 4.46003C6.72061 4.46003 6.48014 4.21957 6.48014 3.92003C6.48014 3.62191 6.72061 3.38003 7.02014 3.38003ZM10.9801 3.38003C11.2797 3.38003 11.5201 3.62191 11.5201 3.92003C11.5201 4.21957 11.2797 4.46003 10.9801 4.46003C10.682 4.46003 10.4401 4.21957 10.4401 3.92003C10.4401 3.62191 10.682 3.38003 10.9801 3.38003ZM2.88014 5.90003C2.28389 5.90003 1.80014 6.38378 1.80014 6.98003V12.02C1.80014 12.6163 2.28389 13.1 2.88014 13.1C3.0067 13.1 3.12764 13.0733 3.24014 13.0325V5.96753C3.12764 5.92675 3.0067 5.90003 2.88014 5.90003ZM3.96014 5.90003V13.82C3.96014 14.4149 4.4453 14.9 5.04014 14.9H12.9601C13.555 14.9 14.0401 14.4149 14.0401 13.82V5.90003H3.96014ZM15.1201 5.90003C14.9936 5.90003 14.8726 5.92675 14.7601 5.96753V13.0325C14.8726 13.0719 14.9936 13.1 15.1201 13.1C15.7164 13.1 16.2001 12.6163 16.2001 12.02V6.98003C16.2001 6.38378 15.7164 5.90003 15.1201 5.90003ZM5.40014 15.62V17.06C5.40014 17.8546 6.04561 18.5 6.84014 18.5C7.63467 18.5 8.28014 17.8546 8.28014 17.06V15.62H5.40014ZM9.72014 15.62V17.06C9.72014 17.8546 10.3656 18.5 11.1601 18.5C11.9547 18.5 12.6001 17.8546 12.6001 17.06V15.62H9.72014Z" fill="#11C82E"/>
</g>
<defs>
<clipPath id="clip0_4_6311">
<rect width="18" height="18" fill="white" transform="translate(0 0.5)"/>
</clipPath>
</defs>
</svg>
