<svg width="18" height="19" viewBox="0 0 18 19" fill="none" xmlns="http://www.w3.org/2000/svg">
<g clip-path="url(#clip0_4_6315)">
<path d="M15.3389 6.37102C15.2651 6.41722 13.5083 7.39222 13.5083 9.55402C13.5911 12.0194 15.7253 12.884 15.7619 12.884C15.7253 12.9302 15.4397 14.0618 14.5937 15.248C13.9223 16.2698 13.1771 17.3 12.0455 17.3C10.9691 17.3 10.5827 16.619 9.34071 16.619C8.00691 16.619 7.62951 17.3 6.60831 17.3C5.47671 17.3 4.67631 16.2146 3.96831 15.2024C3.04851 13.8776 2.26671 11.7986 2.23911 9.80242C2.22051 8.74462 2.42331 7.70482 2.93811 6.82162C3.66471 5.58862 4.96191 4.75162 6.37851 4.72402C7.46391 4.68742 8.42991 5.46922 9.09231 5.46922C9.72711 5.46922 10.9139 4.72402 12.2567 4.72402C12.8363 4.72462 14.3819 4.89922 15.3389 6.37102ZM9.00051 4.51282C8.80731 3.54682 9.34071 2.58082 9.83751 1.96462C10.4723 1.21942 11.4749 0.713623 12.3395 0.713623C12.3947 1.67962 12.0449 2.62702 11.4197 3.31702C10.8587 4.06222 9.89271 4.62322 9.00051 4.51282Z" fill="#444444" fill-opacity="0.8"/>
</g>
<defs>
<clipPath id="clip0_4_6315">
<rect width="18" height="18" fill="white" transform="translate(0 0.5)"/>
</clipPath>
</defs>
</svg>
