<svg width="15" height="16" viewBox="0 0 15 16" fill="none" xmlns="http://www.w3.org/2000/svg">
<path d="M11.2395 8.79239H7.84064V12.1913C7.84064 12.3716 7.76902 12.5445 7.64153 12.672C7.51405 12.7995 7.34114 12.8711 7.16085 12.8711C6.98056 12.8711 6.80766 12.7995 6.68017 12.672C6.55269 12.5445 6.48107 12.3716 6.48107 12.1913V8.79239H3.08216C2.90187 8.79239 2.72896 8.72077 2.60148 8.59329C2.47399 8.4658 2.40237 8.2929 2.40237 8.11261C2.40237 7.93232 2.47399 7.75941 2.60148 7.63193C2.72896 7.50444 2.90187 7.43282 3.08216 7.43282H6.48107V4.03391C6.48107 3.85362 6.55269 3.68071 6.68017 3.55323C6.80766 3.42575 6.98056 3.35413 7.16085 3.35413C7.34114 3.35413 7.51405 3.42575 7.64153 3.55323C7.76902 3.68071 7.84064 3.85362 7.84064 4.03391V7.43282H11.2395C11.4198 7.43282 11.5927 7.50444 11.7202 7.63193C11.8477 7.75941 11.9193 7.93232 11.9193 8.11261C11.9193 8.2929 11.8477 8.4658 11.7202 8.59329C11.5927 8.72077 11.4198 8.79239 11.2395 8.79239Z" fill="white"/>
</svg>
