<svg width="32" height="33" viewBox="0 0 32 33" fill="none" xmlns="http://www.w3.org/2000/svg">
<g clip-path="url(#clip0_2_140)">
<path d="M27 0.875H5C2.23858 0.875 0 3.11358 0 5.875V27.875C0 30.6364 2.23858 32.875 5 32.875H27C29.7614 32.875 32 30.6364 32 27.875V5.875C32 3.11358 29.7614 0.875 27 0.875Z" fill="#EDEFF1"/>
<path d="M16 10.075C18.2 10.075 18.5 10.075 19.4 10.075C20.2 10.075 20.6 10.275 20.9 10.375C21.3 10.575 21.6 10.675 21.9 10.975C22.2 11.275 22.4 11.575 22.5 11.975C22.6 12.275 22.7 12.675 22.8 13.475C22.8 14.375 22.8 14.575 22.8 16.875C22.8 19.175 22.8 19.375 22.8 20.275C22.8 21.075 22.6 21.475 22.5 21.775C22.3 22.175 22.2 22.475 21.9 22.775C21.6 23.075 21.3 23.275 20.9 23.375C20.6 23.475 20.2 23.575 19.4 23.675C18.5 23.675 18.3 23.675 16 23.675C13.7 23.675 13.5 23.675 12.6 23.675C11.8 23.675 11.4 23.475 11.1 23.375C10.7 23.175 10.4 23.075 10.1 22.775C9.80001 22.475 9.60001 22.175 9.50001 21.775C9.40001 21.475 9.30001 21.075 9.20001 20.275C9.20001 19.375 9.20001 19.175 9.20001 16.875C9.20001 14.575 9.20001 14.375 9.20001 13.475C9.20001 12.675 9.40001 12.275 9.50001 11.975C9.70001 11.575 9.80001 11.275 10.1 10.975C10.4 10.675 10.7 10.475 11.1 10.375C11.4 10.275 11.8 10.175 12.6 10.075C13.5 10.075 13.8 10.075 16 10.075ZM16 8.57501C13.7 8.57501 13.5 8.57501 12.6 8.57501C11.7 8.57501 11.1 8.77501 10.6 8.97501C10.1 9.17501 9.60001 9.47501 9.10001 9.97501C8.60001 10.475 8.40001 10.875 8.10001 11.475C7.90001 11.975 7.80001 12.575 7.70001 13.475C7.70001 14.375 7.70001 14.675 7.70001 16.875C7.70001 19.175 7.70001 19.375 7.70001 20.275C7.70001 21.175 7.90001 21.775 8.10001 22.275C8.30001 22.775 8.60001 23.275 9.10001 23.775C9.60001 24.275 10 24.475 10.6 24.775C11.1 24.975 11.7 25.075 12.6 25.175C13.5 25.175 13.8 25.175 16 25.175C18.2 25.175 18.5 25.175 19.4 25.175C20.3 25.175 20.9 24.975 21.4 24.775C21.9 24.575 22.4 24.275 22.9 23.775C23.4 23.275 23.6 22.875 23.9 22.275C24.1 21.775 24.2 21.175 24.3 20.275C24.3 19.375 24.3 19.075 24.3 16.875C24.3 14.675 24.3 14.375 24.3 13.475C24.3 12.575 24.1 11.975 23.9 11.475C23.7 10.975 23.4 10.475 22.9 9.97501C22.4 9.47501 22 9.27501 21.4 8.97501C20.9 8.77501 20.3 8.67501 19.4 8.57501C18.5 8.57501 18.3 8.57501 16 8.57501Z" fill="#F00073"/>
<path d="M16 12.575C13.6 12.575 11.7 14.475 11.7 16.875C11.7 19.275 13.6 21.175 16 21.175C18.4 21.175 20.3 19.275 20.3 16.875C20.3 14.475 18.4 12.575 16 12.575ZM16 19.675C14.5 19.675 13.2 18.475 13.2 16.875C13.2 15.375 14.4 14.075 16 14.075C17.5 14.075 18.8 15.275 18.8 16.875C18.8 18.375 17.5 19.675 16 19.675Z" fill="#F00073"/>
<path d="M20.4 13.475C20.9523 13.475 21.4 13.0273 21.4 12.475C21.4 11.9227 20.9523 11.475 20.4 11.475C19.8477 11.475 19.4 11.9227 19.4 12.475C19.4 13.0273 19.8477 13.475 20.4 13.475Z" fill="#F00073"/>
</g>
<defs>
<clipPath id="clip0_2_140">
<rect y="0.875" width="32" height="32" rx="16" fill="white"/>
</clipPath>
</defs>
</svg>
