<svg width="32" height="33" viewBox="0 0 32 33" fill="none" xmlns="http://www.w3.org/2000/svg">
<g clip-path="url(#clip0_2_143)">
<path d="M27 0.875H5C2.23858 0.875 0 3.11358 0 5.875V27.875C0 30.6364 2.23858 32.875 5 32.875H27C29.7614 32.875 32 30.6364 32 27.875V5.875C32 3.11358 29.7614 0.875 27 0.875Z" fill="#EDEFF1"/>
<path d="M16 8.875C11.6 8.875 8 12.475 8 16.875C8 20.175 10 22.975 12.8 24.175C12.8 23.575 12.8 22.975 12.9 22.375C13.1 21.675 13.9 17.975 13.9 17.975C13.9 17.975 13.6 17.475 13.6 16.675C13.6 15.475 14.3 14.575 15.1 14.575C15.8 14.575 16.2 15.075 16.2 15.775C16.2 16.475 15.7 17.575 15.5 18.575C15.3 19.375 15.9 20.075 16.8 20.075C18.3 20.075 19.3 18.175 19.3 15.775C19.3 13.975 18.1 12.675 16 12.675C13.6 12.675 12.1 14.475 12.1 16.475C12.1 17.175 12.3 17.675 12.6 18.075C12.7 18.275 12.8 18.275 12.7 18.475C12.7 18.575 12.6 18.975 12.5 19.075C12.4 19.275 12.3 19.375 12.1 19.275C11 18.775 10.5 17.575 10.5 16.175C10.5 13.875 12.4 11.175 16.2 11.175C19.3 11.175 21.3 13.375 21.3 15.775C21.3 18.875 19.6 21.275 17 21.275C16.1 21.275 15.3 20.775 15 20.275C15 20.275 14.5 22.075 14.4 22.475C14.2 23.075 13.9 23.675 13.6 24.175C14.3 24.375 15.1 24.475 15.9 24.475C20.3 24.475 23.9 20.875 23.9 16.475C24 12.475 20.4 8.875 16 8.875Z" fill="#E60023"/>
</g>
<defs>
<clipPath id="clip0_2_143">
<rect y="0.875" width="32" height="32" rx="16" fill="white"/>
</clipPath>
</defs>
</svg>
