<svg width="12" height="13" viewBox="0 0 12 13" fill="none" xmlns="http://www.w3.org/2000/svg">
<g clip-path="url(#clip0_4_301)">
<path d="M5.74163 9.25627C5.90053 9.16037 6.09947 9.16037 6.25837 9.25627L8.0755 10.353C8.45416 10.5816 8.92127 10.2421 8.82079 9.81136L8.33856 7.74423C8.2964 7.56349 8.35782 7.37425 8.4981 7.25273L10.1043 5.86128C10.4386 5.57167 10.2599 5.02254 9.81918 4.98515L7.70543 4.80582C7.52064 4.79014 7.35971 4.67347 7.28734 4.50273L6.46036 2.55152C6.28807 2.145 5.71193 2.145 5.53964 2.55152L4.71266 4.50272C4.64029 4.67347 4.47936 4.79014 4.29457 4.80582L2.18081 4.98515C1.7401 5.02254 1.5614 5.57167 1.8957 5.86127L3.5019 7.25273C3.64218 7.37425 3.7036 7.56349 3.66144 7.74423L3.17921 9.81136C3.07873 10.2421 3.54584 10.5816 3.9245 10.353L5.74163 9.25627Z" fill="#F59E0B"/>
</g>
<defs>
<clipPath id="clip0_4_301">
<rect width="12" height="12" fill="white" transform="translate(0 0.465332)"/>
</clipPath>
</defs>
</svg>
