<svg width="33" height="17" viewBox="0 0 33 17" fill="none" xmlns="http://www.w3.org/2000/svg">
<path d="M32.8481 7.06124C32.8574 7.14552 32.8574 7.23048 32.8481 7.31476C32.8356 7.47215 32.7683 7.62132 32.6566 7.73925C32.5087 7.87164 32.3146 7.94914 32.1105 7.95739C32.0037 7.97213 31.897 7.98686 31.7966 7.99865C31.5925 8.02813 31.3917 8.05467 31.197 8.07825C30.8015 8.12542 30.4217 8.17258 30.0608 8.2168C29.3388 8.29639 28.6922 8.3583 28.1461 8.39957C27.0569 8.47916 26.382 8.47032 26.3663 8.35535C26.3506 8.24039 26.9941 8.03698 28.0613 7.80115C28.5949 7.68324 29.2352 7.55647 29.9446 7.42677C30.3025 7.36781 30.6791 7.30001 31.0715 7.23516C31.2619 7.20175 31.4565 7.16933 31.6553 7.13789C31.547 7.07423 31.4422 7.00535 31.3414 6.93153C30.9051 6.65738 30.2271 6.15035 29.0657 5.41044C27.4178 4.35097 25.6529 3.46147 23.8019 2.75736C22.4493 2.25217 21.0436 1.88262 19.6083 1.65487C18.8171 1.53123 18.0181 1.45639 17.2165 1.43083C16.378 1.41269 15.5392 1.44618 14.7054 1.53105C13.8575 1.62765 13.0182 1.78233 12.1943 1.99387C11.3599 2.21097 10.5462 2.49298 9.76167 2.83696C8.20563 3.51488 6.79167 4.44941 5.58696 5.59615C5.01644 6.14718 4.49176 6.73849 4.01752 7.36487C3.57593 7.96035 3.18247 8.58606 2.84044 9.23676C2.24142 10.3474 1.79929 11.5266 1.52526 12.7447C1.35049 13.5778 1.24554 14.4225 1.21137 15.271C1.23699 15.5871 1.22118 15.9049 1.16429 16.2173C1.05981 15.9132 1.00375 15.5964 0.997926 15.2769C0.939089 14.405 0.976955 13.5297 1.11092 12.6651C1.31819 11.3818 1.71434 10.1317 2.288 8.95082C2.61994 8.25571 3.00822 7.58557 3.44939 6.94628C3.92519 6.26836 4.45844 5.62758 5.04394 5.03017C6.28358 3.78145 7.75448 2.75464 9.385 1.99977C10.2059 1.61866 11.0596 1.3031 11.9369 1.05645C12.8043 0.815648 13.6899 0.637279 14.5861 0.522891C16.3003 0.308588 18.0386 0.329438 19.7464 0.584793C21.2512 0.813284 22.7248 1.19584 24.1409 1.72561C26.074 2.45191 27.9 3.40794 29.5742 4.5703C30.3558 5.10384 31.0905 5.6953 31.7715 6.33902L31.8436 6.41272C31.6654 5.03002 31.6035 3.63627 31.6585 2.24444C31.7055 1.02108 31.8499 0.272324 31.9723 0.275272C32.2235 0.275272 32.2548 3.2703 32.8261 6.87258L32.8481 7.06124Z" fill="#072333"/>
</svg>
