<svg width="32" height="33" viewBox="0 0 32 33" fill="none" xmlns="http://www.w3.org/2000/svg">
<g clip-path="url(#clip0_2_142)">
<path d="M27 0.875H5C2.23858 0.875 0 3.11358 0 5.875V27.875C0 30.6364 2.23858 32.875 5 32.875H27C29.7614 32.875 32 30.6364 32 27.875V5.875C32 3.11358 29.7614 0.875 27 0.875Z" fill="#EDEFF1"/>
<path fill-rule="evenodd" clip-rule="evenodd" d="M21.6 11.175C20.1 9.675 18.1 8.875 16 8.875C11.6 8.875 8 12.475 8 16.875C8 18.275 8.40001 19.675 9.10001 20.875L8 24.875L12.2 23.775C13.4 24.375 14.7 24.775 16 24.775C20.4 24.775 24 21.175 24 16.775C24 14.675 23.1 12.675 21.6 11.175ZM16 23.475C14.8 23.475 13.6 23.175 12.6 22.575L12.4 22.475L9.89999 23.175L10.6 20.775L10.4 20.475C9.69999 19.375 9.39999 18.175 9.39999 16.975C9.39999 13.375 12.4 10.375 16 10.375C17.8 10.375 19.4 11.075 20.7 12.275C22 13.575 22.6 15.175 22.6 16.975C22.6 20.475 19.7 23.475 16 23.475ZM19.6 18.475C19.4 18.375 18.4 17.875 18.2 17.875C18 17.775 17.9 17.775 17.8 17.975C17.7 18.175 17.3 18.575 17.2 18.775C17.1 18.875 17 18.875 16.8 18.875C16.6 18.775 16 18.575 15.2 17.875C14.6 17.375 14.2 16.675 14.1 16.475C14 16.275 14.1 16.175 14.2 16.075C14.3 15.975 14.4 15.875 14.5 15.775C14.6 15.675 14.6 15.575 14.7 15.475C14.8 15.375 14.7 15.275 14.7 15.175C14.7 15.075 14.3 14.075 14.1 13.675C14 13.375 13.8 13.375 13.7 13.375C13.6 13.375 13.5 13.375 13.3 13.375C13.2 13.375 13 13.375 12.8 13.575C12.6 13.775 12.1 14.275 12.1 15.275C12.1 16.275 12.8 17.175 12.9 17.375C13 17.475 14.3 19.575 16.3 20.375C18 21.075 18.3 20.875 18.7 20.875C19.1 20.875 19.9 20.375 20 19.975C20.2 19.475 20.2 19.075 20.1 19.075C20 18.575 19.8 18.575 19.6 18.475Z" fill="#25D366"/>
</g>
<defs>
<clipPath id="clip0_2_142">
<rect y="0.875" width="32" height="32" rx="16" fill="white"/>
</clipPath>
</defs>
</svg>
