<svg width="32" height="33" viewBox="0 0 32 33" fill="none" xmlns="http://www.w3.org/2000/svg">
<g clip-path="url(#clip0_2_141)">
<path d="M27 0.875H5C2.23858 0.875 0 3.11358 0 5.875V27.875C0 30.6364 2.23858 32.875 5 32.875H27C29.7614 32.875 32 30.6364 32 27.875V5.875C32 3.11358 29.7614 0.875 27 0.875Z" fill="#EDEFF1"/>
<path d="M23.6 12.975C23.4 12.275 22.9 11.775 22.2 11.575C21 11.275 15.9 11.275 15.9 11.275C15.9 11.275 10.9 11.275 9.60001 11.575C8.90001 11.775 8.4 12.275 8.2 12.975C8 14.275 8 16.875 8 16.875C8 16.875 8 19.475 8.3 20.775C8.5 21.475 9 21.975 9.7 22.175C10.9 22.475 16 22.475 16 22.475C16 22.475 21 22.475 22.3 22.175C23 21.975 23.5 21.475 23.7 20.775C24 19.475 24 16.875 24 16.875C24 16.875 24 14.275 23.6 12.975ZM14.4 19.275V14.475L18.6 16.875L14.4 19.275Z" fill="#FF0000"/>
</g>
<defs>
<clipPath id="clip0_2_141">
<rect y="0.875" width="32" height="32" rx="16" fill="white"/>
</clipPath>
</defs>
</svg>
